<svg xmlns="http://www.w3.org/2000/svg" width="760" height="215" viewBox="0 0 760 215" role="img">
<rect x="0.5" y="0.5" width="759" height="214" rx="12" fill="#0d1117" stroke="#30363d"/>
<text x="24" y="34" fill="#58a6ff" font-family="Segoe UI, Ubuntu, sans-serif" font-size="18" font-weight="700">Rafael Ryan Ramos de Souza · GitHub</text>
<text x="24" y="54" fill="#8b949e" font-family="Segoe UI, Ubuntu, sans-serif" font-size="11">@Soturine</text>
<rect x="24" y="72" width="222" height="48" rx="8" fill="#161b22" stroke="#30363d"/>
<text x="38" y="91" fill="#8b949e" font-family="Segoe UI, Ubuntu, sans-serif" font-size="11">Repositórios públicos</text>
<text x="38" y="111" fill="#c9d1d9" font-family="Segoe UI, Ubuntu, sans-serif" font-size="18" font-weight="700">16</text>
<rect x="268" y="72" width="222" height="48" rx="8" fill="#161b22" stroke="#30363d"/>
<text x="282" y="91" fill="#8b949e" font-family="Segoe UI, Ubuntu, sans-serif" font-size="11">Seguidores</text>
<text x="282" y="111" fill="#c9d1d9" font-family="Segoe UI, Ubuntu, sans-serif" font-size="18" font-weight="700">12</text>
<rect x="512" y="72" width="222" height="48" rx="8" fill="#161b22" stroke="#30363d"/>
<text x="526" y="91" fill="#8b949e" font-family="Segoe UI, Ubuntu, sans-serif" font-size="11">Seguindo</text>
<text x="526" y="111" fill="#c9d1d9" font-family="Segoe UI, Ubuntu, sans-serif" font-size="18" font-weight="700">24</text>
<rect x="24" y="132" width="222" height="48" rx="8" fill="#161b22" stroke="#30363d"/>
<text x="38" y="151" fill="#8b949e" font-family="Segoe UI, Ubuntu, sans-serif" font-size="11">Stars recebidas</text>
<text x="38" y="171" fill="#c9d1d9" font-family="Segoe UI, Ubuntu, sans-serif" font-size="18" font-weight="700">—</text>
<rect x="268" y="132" width="222" height="48" rx="8" fill="#161b22" stroke="#30363d"/>
<text x="282" y="151" fill="#8b949e" font-family="Segoe UI, Ubuntu, sans-serif" font-size="11">Forks</text>
<text x="282" y="171" fill="#c9d1d9" font-family="Segoe UI, Ubuntu, sans-serif" font-size="18" font-weight="700">—</text>
<rect x="512" y="132" width="222" height="48" rx="8" fill="#161b22" stroke="#30363d"/>
<text x="526" y="151" fill="#8b949e" font-family="Segoe UI, Ubuntu, sans-serif" font-size="11">Commits rastreados</text>
<text x="526" y="171" fill="#c9d1d9" font-family="Segoe UI, Ubuntu, sans-serif" font-size="18" font-weight="700">—</text>
<text x="742" y="201" text-anchor="end" fill="#8b949e" font-family="Segoe UI, Ubuntu, sans-serif" font-size="10">Sincronização automática configurada</text>
</svg>
