<svg xmlns="http://www.w3.org/2000/svg" width="205" height="180" viewBox="0 0 205 180" role="img">
<title>Estatísticas gerais do GitHub</title>
<rect x=".5" y=".5" width="204" height="179" rx="10" fill="#161b22" stroke="#30363d"/>
<text x="14" y="24" fill="#f0883e" font-family="Segoe UI, Ubuntu, Arial, sans-serif" font-size="12" font-weight="700">Stats</text>
<text x="14" y="39" fill="#8b949e" font-family="Segoe UI, Ubuntu, Arial, sans-serif" font-size="8">GitHub público</text>
<text x="15" y="61" fill="#ffa657" font-family="Segoe UI, Ubuntu, Arial, sans-serif" font-size="9" font-weight="700">★</text>
<text x="31" y="61" fill="#8b949e" font-family="Segoe UI, Ubuntu, Arial, sans-serif" font-size="8">Stars</text>
<text x="112" y="61" text-anchor="end" fill="#f0f6fc" font-family="Segoe UI, Ubuntu, Arial, sans-serif" font-size="9" font-weight="700">19</text>
<text x="15" y="82" fill="#ffa657" font-family="Segoe UI, Ubuntu, Arial, sans-serif" font-size="9" font-weight="700">●</text>
<text x="31" y="82" fill="#8b949e" font-family="Segoe UI, Ubuntu, Arial, sans-serif" font-size="8">Commits</text>
<text x="112" y="82" text-anchor="end" fill="#f0f6fc" font-family="Segoe UI, Ubuntu, Arial, sans-serif" font-size="9" font-weight="700">1.1k</text>
<text x="15" y="103" fill="#ffa657" font-family="Segoe UI, Ubuntu, Arial, sans-serif" font-size="9" font-weight="700">⑂</text>
<text x="31" y="103" fill="#8b949e" font-family="Segoe UI, Ubuntu, Arial, sans-serif" font-size="8">Forks</text>
<text x="112" y="103" text-anchor="end" fill="#f0f6fc" font-family="Segoe UI, Ubuntu, Arial, sans-serif" font-size="9" font-weight="700">5</text>
<text x="15" y="124" fill="#ffa657" font-family="Segoe UI, Ubuntu, Arial, sans-serif" font-size="9" font-weight="700">◆</text>
<text x="31" y="124" fill="#8b949e" font-family="Segoe UI, Ubuntu, Arial, sans-serif" font-size="8">Projetos</text>
<text x="112" y="124" text-anchor="end" fill="#f0f6fc" font-family="Segoe UI, Ubuntu, Arial, sans-serif" font-size="9" font-weight="700">13</text>
<text x="15" y="145" fill="#ffa657" font-family="Segoe UI, Ubuntu, Arial, sans-serif" font-size="9" font-weight="700">◎</text>
<text x="31" y="145" fill="#8b949e" font-family="Segoe UI, Ubuntu, Arial, sans-serif" font-size="8">Seguidores</text>
<text x="112" y="145" text-anchor="end" fill="#f0f6fc" font-family="Segoe UI, Ubuntu, Arial, sans-serif" font-size="9" font-weight="700">11</text>
<g transform="translate(139 67) scale(3.25)"><path d="M8 0C3.58 0 0 3.58 0 8c0 3.54 2.29 6.53 5.47 7.59.4.07.55-.17.55-.38 0-.19-.01-.82-.01-1.49-2.01.37-2.53-.49-2.69-.94-.09-.23-.48-.94-.82-1.13-.28-.15-.68-.52-.01-.53.63-.01 1.08.58 1.23.82.72 1.21 1.87.87 2.33.66.07-.52.28-.87.51-1.07-1.6-.18-3.28-.8-3.28-3.55 0-.88.31-1.6.82-2.16-.08-.2-.36-1.02.08-2.12 0 0 .67-.22 2.2.82A7.68 7.68 0 0 1 8 4.69a7.7 7.7 0 0 1 2 .27c1.53-1.04 2.2-.82 2.2-.82.44 1.1.16 1.92.08 2.12.51.56.82 1.28.82 2.16 0 2.76-1.68 3.37-3.29 3.55.29.25.54.73.54 1.48 0 1.07-.01 1.93-.01 2.2 0 .21.15.46.55.38A8.01 8.01 0 0 0 16 8c0-4.42-3.58-8-8-8Z" fill="#f0883e"/></g>
<text x="166" y="135" text-anchor="middle" fill="#ffa657" font-family="Segoe UI, Ubuntu, Arial, sans-serif" font-size="9" font-weight="700">GitHub</text>
<text x="196" y="171" text-anchor="end" fill="#8b949e" font-family="Segoe UI, Ubuntu, Arial, sans-serif" font-size="7">dados públicos</text>
</svg>
